HIERARCHY
ROOT Hips
{
	OFFSET 0.000000 0.000000 0.000000
	CHANNELS 6 Xposition Yposition Zposition Yrotation Xrotation Zrotation 
	JOINT LeftHip
	{
		OFFSET 0.086086 -0.000245 0.000027
		CHANNELS 3 Yrotation Xrotation Zrotation
		JOINT LeftKnee
		{
			OFFSET 0.000000 -0.456850 0.000056
			CHANNELS 3 Yrotation Xrotation Zrotation
			JOINT LeftAnkle
			{
				OFFSET 0.000000 -0.415733 0.000025
				CHANNELS 3 Yrotation Xrotation Zrotation
				JOINT LeftToe
				{
					OFFSET 0.000000 -0.078949 0.181402
					CHANNELS 3 Yrotation Xrotation Zrotation
					End Site
					{
						OFFSET 0.000000 0.000000 0.000000
					}
				}
			}
		}
	}
	JOINT RightHip
	{
		OFFSET -0.086086 -0.000223 0.000025
		CHANNELS 3 Yrotation Xrotation Zrotation
		JOINT RightKnee
		{
			OFFSET 0.000000 -0.456850 0.000056
			CHANNELS 3 Yrotation Xrotation Zrotation
			JOINT RightAnkle
			{
				OFFSET 0.000000 -0.415733 0.000025
				CHANNELS 3 Yrotation Xrotation Zrotation
				JOINT RightToe
				{
					OFFSET 0.000000 -0.078949 0.181402
					CHANNELS 3 Yrotation Xrotation Zrotation
					End Site
					{
						OFFSET 0.000000 0.000000 0.000000
					}
				}
			}
		}
	}
	JOINT Chest
	{
		OFFSET 0.000000 0.105171 -0.011686
		CHANNELS 3 Yrotation Xrotation Zrotation
		JOINT Chest3
		{
			OFFSET 0.000000 0.217053 -0.010445
			CHANNELS 3 Yrotation Xrotation Zrotation
			JOINT Chest4
			{
				OFFSET 0.000000 0.103719 0.000096
				CHANNELS 3 Yrotation Xrotation Zrotation
				JOINT Neck
				{
					OFFSET 0.000000 0.140113 0.000000
					CHANNELS 3 Yrotation Xrotation Zrotation
					JOINT Head
					{
						OFFSET 0.000000 0.094237 -0.000022
						CHANNELS 3 Yrotation Xrotation Zrotation
						End Site
						{
							OFFSET 0.000000 0.000000 0.000000
						}
					}
				}
				JOINT LeftCollar
				{
					OFFSET 0.027026 0.078483 0.000000
					CHANNELS 3 Yrotation Xrotation Zrotation
					JOINT LeftShoulder
					{
						OFFSET 0.127025 0.000000 0.000000
						CHANNELS 3 Yrotation Xrotation Zrotation
						JOINT LeftElbow
						{
							OFFSET 0.299989 0.000000 0.000000
							CHANNELS 3 Yrotation Xrotation Zrotation
							JOINT LeftWrist
							{
								OFFSET 0.248186 0.000000 -0.000034
								CHANNELS 3 Yrotation Xrotation Zrotation
								End Site
								{
									OFFSET 0.000000 0.000000 0.000000
								}
							}
						}
					}
				}
				JOINT RightCollar
				{
					OFFSET -0.027026 0.078483 0.000000
					CHANNELS 3 Yrotation Xrotation Zrotation
					JOINT RightShoulder
					{
						OFFSET -0.127025 0.000000 0.000000
						CHANNELS 3 Yrotation Xrotation Zrotation
						JOINT RightElbow
						{
							OFFSET -0.299989 0.000000 0.000000
							CHANNELS 3 Yrotation Xrotation Zrotation
							JOINT RightWrist
							{
								OFFSET -0.248186 0.000000 -0.000034
								CHANNELS 3 Yrotation Xrotation Zrotation
								End Site
								{
									OFFSET 0.000000 0.000000 0.000000
								}
							}
						}
					}
				}
			}
		}
	}
}
MOTION
Frames: 8
Frame Time: 0.016667
2.474006 0.967240 4.664866 -174.649365 1.488989 -1.193106 3.126118 1.061898 6.027978 -0.516290 1.435470 -0.045976 0.511259 -3.335091 -3.504100 0.008658 -0.721498 -1.374960 -3.118467 0.679663 -1.101204 -0.985731 2.228460 0.107695 -17.698194 -5.480882 2.430896 0.000000 -0.000000 0.000000 -0.860011 0.071504 0.833655 -0.840194 -5.768822 0.744853 -0.288289 5.854623 0.248708 3.198700 14.509286 -1.276800 6.496088 -8.941365 -3.622851 -2.047137 -3.487363 -3.083608 6.629652 -46.240819 -44.929321 -76.628855 6.376251 1.868580 -5.365259 6.937498 42.236720 3.198597 -2.973447 3.438837 -10.740785 -52.632881 30.676820 82.237332 -52.118580 2.443713 -1.322544 -2.122481 -42.932569 
2.474205 0.967274 4.664884 -174.600114 1.486244 -1.204034 3.119813 1.043196 6.049803 -0.527788 1.454854 -0.037062 0.480222 -3.337576 -3.519148 0.008664 -0.720990 -1.376933 -3.130363 0.680636 -1.071092 -0.997210 2.245494 0.098605 -17.723938 -5.502990 2.426702 0.000000 -0.000000 0.000000 -0.853471 0.095285 0.792294 -0.830639 -5.747694 0.707890 -0.286132 5.862630 0.235179 3.193128 14.564143 -1.241504 6.468970 -8.842346 -3.550945 -2.060955 -3.499855 -2.650769 5.104217 -47.323531 -43.420420 -77.042113 7.112434 2.854363 -5.277700 6.948161 41.962226 3.217571 -3.079328 3.358486 -9.822372 -52.676544 29.747398 81.901172 -48.585615 1.411369 -1.687354 -1.674578 -42.802864 
2.474395 0.967319 4.664851 -174.555888 1.487709 -1.213684 3.090718 1.030859 6.064451 -0.517376 1.467167 -0.018781 0.455274 -3.343079 -3.536936 0.008651 -0.718046 -1.380540 -3.130265 0.683921 -1.043661 -0.994106 2.254530 0.092438 -17.771135 -5.522864 2.422957 0.000000 -0.000000 0.000000 -0.841619 0.105051 0.739612 -0.815323 -5.739024 0.660822 -0.282167 5.865991 0.218035 3.180314 14.636579 -1.175831 6.415810 -8.713148 -3.418286 -2.024632 -3.544376 -2.192780 3.471608 -48.306395 -41.914589 -77.293896 7.827889 3.769847 -5.215391 7.112821 41.724153 3.260469 -3.158016 3.290467 -9.056107 -52.768503 28.934743 81.494438 -45.064126 0.548208 -1.936897 -1.400994 -42.225060 
2.474561 0.967368 4.664774 -174.516604 1.490713 -1.223187 3.049760 1.023499 6.074890 -0.494070 1.477253 0.004367 0.434548 -3.352096 -3.555262 0.008632 -0.714161 -1.384986 -3.122157 0.690679 -1.018126 -0.983670 2.257965 0.087548 -17.828659 -5.541482 2.420310 0.000000 -0.000000 0.000000 -0.826483 0.107245 0.680112 -0.796463 -5.737081 0.607664 -0.277086 5.866842 0.198718 3.164425 14.720858 -1.092214 6.349609 -8.563235 -3.250253 -1.958751 -3.608111 -1.720341 1.706826 -49.194252 -40.352544 -77.372690 8.733426 4.707175 -5.165508 7.344243 41.561443 3.321346 -3.231601 3.230245 -8.342520 -52.882350 28.159057 81.008453 -41.275152 -0.234927 -2.075077 -1.152432 -41.410138 
2.474664 0.967404 4.664654 -174.476287 1.486241 -1.233792 3.000808 1.027004 6.085102 -0.467478 1.488302 0.023239 0.418090 -3.363592 -3.568051 0.008625 -0.711413 -1.389194 -3.116528 0.710823 -0.995391 -0.979703 2.255406 0.081517 -17.878118 -5.558484 2.421081 0.000000 -0.000000 0.000000 -0.813083 0.119610 0.626507 -0.779687 -5.726094 0.559772 -0.272602 5.871068 0.181323 3.147495 14.793810 -1.014943 6.284713 -8.433842 -3.094618 -1.907191 -3.651194 -1.289969 -0.147351 -50.020477 -38.661274 -77.225413 10.524151 5.782276 -5.126874 7.474364 41.878477 3.402173 -3.355788 3.159899 -7.561046 -52.984661 27.306159 80.332808 -36.628473 -1.038200 -2.046451 -0.611737 -40.690084 
2.474689 0.967421 4.664482 -174.433034 1.468218 -1.246791 2.936968 1.046904 6.098251 -0.434604 1.503339 0.032872 0.408246 -3.378221 -3.572176 0.008645 -0.711091 -1.393062 -3.117955 0.753297 -0.974511 -0.988804 2.242790 0.072373 -17.910093 -5.572336 2.426224 0.000000 -0.000000 0.000000 -0.804024 0.153630 0.585810 -0.767953 -5.695855 0.523410 -0.269602 5.882484 0.168113 3.129698 14.841939 -0.954809 6.226147 -8.349338 -2.972406 -1.889364 -3.667081 -0.925106 -2.054991 -50.805779 -36.790123 -76.787725 13.627839 6.975113 -5.038849 7.417152 43.051261 3.513129 -3.569979 3.075035 -6.673485 -53.052607 26.343326 79.354448 -30.704306 -1.878241 -1.784530 0.443672 -40.251106 
2.474650 0.967425 4.664267 -174.388742 1.442723 -1.260914 2.865147 1.077688 6.111124 -0.398443 1.519346 0.038224 0.402666 -3.395322 -3.570764 0.008678 -0.711906 -1.396692 -3.121842 0.809169 -0.956399 -1.004372 2.224175 0.062085 -17.934006 -5.584565 2.434775 0.000000 -0.000000 0.000000 -0.796697 0.197797 0.551048 -0.758299 -5.656597 0.492352 -0.267190 5.897270 0.156837 3.110660 14.878743 -0.901068 6.168352 -8.285425 -2.862458 -1.884763 -3.661337 -0.602210 -4.055720 -51.516550 -34.785221 -76.037658 17.606487 8.289809 -4.818786 7.296505 44.720173 3.644116 -3.834647 2.979166 -5.718160 -53.103489 25.305214 78.152392 -23.928561 -2.770352 -1.345625 1.779150 -39.954130 
2.474548 0.967424 4.664041 -174.343135 1.418979 -1.273560 2.809914 1.108651 6.118174 -0.377583 1.530450 0.045036 0.394353 -3.411886 -3.567120 0.008696 -0.712075 -1.399312 -3.124935 0.861551 -0.944740 -1.020415 2.211346 0.054150 -17.959731 -5.599395 2.446170 0.000000 -0.000000 0.000000 -0.788308 0.235358 0.513967 -0.747487 -5.623208 0.459227 -0.264408 5.909857 0.144813 3.091476 14.921522 -0.845728 6.109465 -8.210455 -2.749183 -1.876376 -3.611595 -0.307178 -6.217433 -52.102131 -32.719418 -74.949404 21.856413 9.892926 -4.485961 7.249630 46.180296 3.766658 -4.086984 2.866499 -4.688526 -53.160954 24.178121 76.860117 -16.979400 -3.775810 -0.863981 3.028699 -39.623597 
